<svg xmlns="http://www.w3.org/2000/svg" width="30" height="30" viewBox="0 0 64 64">
  <g transform="translate(32 34)">
    <!-- center leaf (top, longest) -->
    <path d="M0 -28 Q3 -18 6 -10 Q3 -7 0 -8 Q-3 -7 -6 -10 Q-3 -18 0 -28 Z" fill="#4bff89" stroke="#d4af37" stroke-width="1.4" stroke-linejoin="round"/>
    <!-- upper-left leaf -->
    <path d="M-20 -22 Q-13 -14 -7 -8 Q-9 -4 -12 -3 Q-15 -4 -17 -6 Q-20 -14 -20 -22 Z" fill="#4bff89" stroke="#d4af37" stroke-width="1.4" stroke-linejoin="round" transform="rotate(-12)"/>
    <!-- upper-right leaf -->
    <path d="M20 -22 Q13 -14 7 -8 Q9 -4 12 -3 Q15 -4 17 -6 Q20 -14 20 -22 Z" fill="#4bff89" stroke="#d4af37" stroke-width="1.4" stroke-linejoin="round" transform="rotate(12)"/>
    <!-- lower-left leaf -->
    <path d="M-22 -2 Q-14 0 -8 4 Q-9 7 -11 8 Q-15 8 -18 6 Q-22 2 -22 -2 Z" fill="#3edb78" stroke="#d4af37" stroke-width="1.3" stroke-linejoin="round"/>
    <!-- lower-right leaf -->
    <path d="M22 -2 Q14 0 8 4 Q9 7 11 8 Q15 8 18 6 Q22 2 22 -2 Z" fill="#3edb78" stroke="#d4af37" stroke-width="1.3" stroke-linejoin="round"/>
    <!-- center vein highlight -->
    <path d="M0 -22 L0 6" stroke="#0a5c2a" stroke-width="1.2" stroke-linecap="round"/>
    <!-- stem -->
    <path d="M0 6 L0 14" stroke="#7a4422" stroke-width="2" stroke-linecap="round"/>
  </g>
</svg>
